<?xml version="1.0"?>
<svg width="24" height="24" xmlns="http://www.w3.org/2000/svg" xmlns:svg="http://www.w3.org/2000/svg">
 <g class="layer">
  <title>Layer 1</title>
  <g data-name="Layer 2" id="svg_1">
   <g data-name="checkmark-circle-2" id="svg_2">
    <rect fill="#00ff00" height="24" id="svg_3" opacity="0" width="24"/>
    <path d="m12,2a10,10 0 1 0 10,10a10,10 0 0 0 -10,-10zm4.3,7.61l-4.57,6a1,1 0 0 1 -0.79,0.39a1,1 0 0 1 -0.79,-0.38l-2.44,-3.11a1,1 0 0 1 1.58,-1.23l1.63,2.08l3.78,-5a1,1 0 1 1 1.6,1.22l0,0.03z" fill="#00ff00" id="svg_4"/>
   </g>
  </g>
 </g>
</svg>